<?xml version="1.0" standalone="no"?>
<!DOCTYPE svg PUBLIC "-//W3C//DTD SVG 20010904//EN"
 "http://www.w3.org/TR/2001/REC-SVG-20010904/DTD/svg10.dtd">
<svg version="1.0" xmlns="http://www.w3.org/2000/svg"
 width="600.000000pt" height="600.000000pt" viewBox="0 0 600.000000 600.000000"
 preserveAspectRatio="xMidYMid meet">

<g transform="translate(0.000000,600.000000) scale(0.100000,-0.100000)"
fill="#000000" stroke="none">
<path d="M1820 5843 c-234 -239 -376 -517 -427 -838 -18 -113 -15 -444 4 -467
17 -21 54 -214 60 -314 7 -113 -8 -221 -48 -344 -28 -85 -31 -109 -32 -225 -1
-71 5 -168 12 -214 9 -54 10 -86 4 -88 -24 -8 -269 -176 -333 -228 -39 -32
-111 -101 -160 -153 -83 -87 -90 -97 -90 -136 0 -22 -8 -100 -18 -172 l-18
-131 -149 -149 c-83 -82 -177 -182 -209 -222 l-59 -73 17 -82 c38 -176 131
-424 223 -597 305 -568 828 -1004 1463 -1222 453 -155 1016 -183 1500 -74 270
61 605 201 838 350 524 334 910 839 1071 1400 46 161 58 229 43 234 -7 2 -31
32 -54 65 -23 34 -111 130 -195 213 l-153 150 -16 130 c-13 111 -20 137 -47
184 -21 36 -130 154 -320 346 l-288 291 7 38 7 37 206 -205 c113 -113 216
-210 228 -216 37 -19 73 -13 104 18 49 49 41 71 -63 178 l-92 94 544 544 545
545 -168 167 -167 168 -544 -544 c-596 -596 -576 -580 -576 -467 0 49 -15 125
-40 211 -20 69 -28 166 -19 239 11 89 47 253 62 285 20 40 15 368 -7 481 -39
198 -118 391 -230 560 -73 109 -174 228 -239 282 l-45 37 -83 -40 c-271 -131
-539 -338 -675 -522 l-43 -58 -217 0 -217 0 -45 58 c-156 203 -430 411 -706
537 l-60 27 -86 -88z m330 -255 c173 -117 327 -266 435 -420 l60 -86 45 6 c59
9 398 9 475 0 l60 -7 53 79 c126 187 374 404 594 520 l47 25 37 -35 c50 -48
115 -142 156 -225 79 -157 116 -325 125 -550 7 -181 -5 -313 -43 -477 -37
-164 -30 -280 31 -525 37 -147 44 -238 25 -335 -43 -220 -130 -518 -161 -549
-9 -9 -18 -24 -22 -35 -24 -81 -149 -336 -189 -386 -10 -13 -52 -75 -94 -138
-242 -367 -542 -629 -797 -694 -54 -14 -62 -14 -123 5 -104 32 -202 81 -295
148 -100 72 -287 259 -376 376 -66 88 -193 278 -193 290 0 4 -15 33 -34 64
-37 61 -147 277 -194 381 -48 106 -87 225 -128 390 -50 200 -52 319 -10 475
58 217 70 382 36 519 -35 146 -44 230 -45 421 0 144 5 214 19 290 43 229 127
413 248 542 l51 53 66 -36 c36 -20 100 -59 141 -86z m3560 -1108 l0 -150 -155
0 -155 0 0 150 0 150 155 0 155 0 0 -150z m-360 -370 l0 -150 -155 0 -155 0 0
150 0 150 155 0 155 0 0 -150z m-350 -340 l0 -150 -155 0 -155 0 0 150 0 150
155 0 155 0 0 -150z"/>
<path d="M1886 4023 c-15 -36 -19 -198 -7 -256 18 -83 74 -188 127 -237 86
-79 234 -129 381 -130 l71 0 71 -76 c46 -49 84 -102 108 -152 l38 -76 3 98 c5
163 -36 280 -136 387 -54 59 -56 60 -65 37 -20 -56 -83 -98 -147 -98 -102 0
-186 103 -161 197 6 21 18 48 27 61 9 13 14 25 13 26 -2 2 -31 18 -64 36 -76
43 -126 80 -196 147 -49 47 -57 52 -63 36z"/>
<path d="M3895 3972 c-39 -37 -109 -89 -156 -117 l-86 -50 19 -25 c39 -54 35
-148 -9 -200 -74 -88 -216 -71 -269 33 l-17 31 -53 -57 c-94 -101 -145 -240
-143 -387 1 -30 4 -66 8 -80 7 -24 8 -24 20 12 18 55 81 147 144 211 l55 57
65 0 c94 0 213 25 284 60 185 91 275 308 227 548 -4 18 -9 32 -13 32 -3 0 -38
-31 -76 -68z"/>
<path d="M2278 3735 c-27 -36 -23 -80 8 -104 15 -12 34 -21 44 -21 28 0 70 39
70 65 0 17 -13 31 -50 54 -28 17 -51 31 -53 31 -1 0 -10 -11 -19 -25z"/>
<path d="M3510 3731 c-52 -32 -56 -61 -14 -98 31 -28 54 -29 88 -2 31 24 34
58 9 100 -21 35 -26 35 -83 0z"/>
<path d="M2821 2819 c-63 -11 -141 -43 -141 -59 0 -6 19 -30 43 -54 56 -55
148 -100 207 -101 63 0 165 52 220 111 41 45 42 48 24 61 -53 38 -245 62 -353
42z"/>
</g>
</svg>
